HIERARCHY
ROOT Hips
{
	OFFSET 0.00000 0.00000 0.00000
	CHANNELS 6 Xposition Yposition Zposition Zrotation Yrotation Xrotation 
	JOINT LHipJoint
	{
		OFFSET 0 0 0
		CHANNELS 3 Zrotation Yrotation Xrotation
		JOINT LeftUpLeg
		{
			OFFSET 1.75344 -1.53157 0.77399
			CHANNELS 3 Zrotation Yrotation Xrotation
			JOINT LeftLeg
			{
				OFFSET 2.25415 -6.19323 0.00000
				CHANNELS 3 Zrotation Yrotation Xrotation
				JOINT LeftFoot
				{
					OFFSET 2.30342 -6.32861 0.00000
					CHANNELS 3 Zrotation Yrotation Xrotation
					JOINT LeftToeBase
					{
						OFFSET 0.10958 -0.30108 1.49206
						CHANNELS 3 Zrotation Yrotation Xrotation
						End Site
						{
							OFFSET 0.00000 -0.00000 0.77783
						}
					}
				}
			}
		}
	}
	JOINT RHipJoint
	{
		OFFSET 0 0 0
		CHANNELS 3 Zrotation Yrotation Xrotation
		JOINT RightUpLeg
		{
			OFFSET -1.81912 -1.53156 0.77399
			CHANNELS 3 Zrotation Yrotation Xrotation
			JOINT RightLeg
			{
				OFFSET -2.22882 -6.12365 0.00000
				CHANNELS 3 Zrotation Yrotation Xrotation
				JOINT RightFoot
				{
					OFFSET -2.21943 -6.09785 0.00000
					CHANNELS 3 Zrotation Yrotation Xrotation
					JOINT RightToeBase
					{
						OFFSET -0.18931 -0.52012 1.59379
						CHANNELS 3 Zrotation Yrotation Xrotation
						End Site
						{
							OFFSET -0.00000 -0.00000 0.84686
						}
					}
				}
			}
		}
	}
	JOINT LowerBack
	{
		OFFSET 0 0 0
		CHANNELS 3 Zrotation Yrotation Xrotation
		JOINT Spine
		{
			OFFSET -0.00200 1.66634 -0.14248
			CHANNELS 3 Zrotation Yrotation Xrotation
			JOINT Spine1
			{
				OFFSET -0.00875 1.64542 0.09514
				CHANNELS 3 Zrotation Yrotation Xrotation
				JOINT Neck
				{
					OFFSET 0 0 0
					CHANNELS 3 Zrotation Yrotation Xrotation
					JOINT Neck1
					{
						OFFSET 0.02257 1.59605 0.00839
						CHANNELS 3 Zrotation Yrotation Xrotation
						JOINT Head
						{
							OFFSET -0.10214 1.57530 -0.23335
							CHANNELS 3 Zrotation Yrotation Xrotation
							End Site
							{
								OFFSET -0.03588 1.60717 -0.08062
							}
						}
					}
				}
				JOINT LeftShoulder
				{
					OFFSET 0 0 0
					CHANNELS 3 Zrotation Yrotation Xrotation
					JOINT LeftArm
					{
						OFFSET 2.54983 1.10186 0.40078
						CHANNELS 3 Zrotation Yrotation Xrotation
						JOINT LeftForeArm
						{
							OFFSET 4.28840 -0.00000 0.00000
							CHANNELS 3 Zrotation Yrotation Xrotation
							JOINT LeftHand
							{
								OFFSET 3.06552 -0.00000 -0.00000
								CHANNELS 3 Zrotation Yrotation Xrotation
								JOINT LeftFingerBase
								{
									OFFSET 0 0 0
									CHANNELS 3 Zrotation Yrotation Xrotation
									JOINT LeftHandIndex1
									{
										OFFSET 0.75304 -0.00000 0.00000
										CHANNELS 3 Zrotation Yrotation Xrotation
										End Site
										{
											OFFSET 0.60712 -0.00000 0.00000
										}
									}
								}
								JOINT LThumb
								{
									OFFSET 0 0 0
									CHANNELS 3 Zrotation Yrotation Xrotation
									End Site
									{
										OFFSET 0.61639 -0.00000 0.61639
									}
								}
							}
						}
					}
				}
				JOINT RightShoulder
				{
					OFFSET 0 0 0
					CHANNELS 3 Zrotation Yrotation Xrotation
					JOINT RightArm
					{
						OFFSET -2.60909 1.35448 0.21802
						CHANNELS 3 Zrotation Yrotation Xrotation
						JOINT RightForeArm
						{
							OFFSET -4.52172 -0.00000 -0.00000
							CHANNELS 3 Zrotation Yrotation Xrotation
							JOINT RightHand
							{
								OFFSET -2.89140 -0.00000 0.00000
								CHANNELS 3 Zrotation Yrotation Xrotation
								JOINT RightFingerBase
								{
									OFFSET 0 0 0
									CHANNELS 3 Zrotation Yrotation Xrotation
									JOINT RightHandIndex1
									{
										OFFSET -0.68054 -0.00000 0.00000
										CHANNELS 3 Zrotation Yrotation Xrotation
										End Site
										{
											OFFSET -0.54867 -0.00000 0.00000
										}
									}
								}
								JOINT RThumb
								{
									OFFSET 0 0 0
									CHANNELS 3 Zrotation Yrotation Xrotation
									End Site
									{
										OFFSET -0.55705 -0.00000 0.55705
									}
								}
							}
						}
					}
				}
			}
		}
	}
}
MOTION
Frames: 10
Frame Time: 0.0333333
0.00 0.00 0.00 182.5350 -31.8342 176.3990 0.0000 0.0000 0.0000 -21.4624 -20.9130 -11.8666 6.6644 15.0426 47.5932 -1.0676 -29.2624 -14.1910 0.5406 4.7106 13.0850 0.0000 0.0000 0.0000 15.4692 21.9515 -33.3967 -16.3548 -19.6784 79.2870 -1.2723 -4.0988 -23.1404 -1.4010 7.4876 -21.1682 -8.6614 -0.7080 13.7556 -7.9853 -3.6613 0.5420 -2.9222 -1.9458 -7.2363 -16.6715 -8.2782 -2.1879 10.9390 -10.7672 -0.4023 5.6050 -5.3455 1.7328 0.0000 -0.0000 0.0000 -65.4285 -10.9557 16.5071 19.1272 -29.5764 -5.0935 -0.0000 -0.0000 24.1961 15.5444 -34.1359 -8.8718 -7.1250 0.0000 -0.0000 -9.3740 -4.7376 10.2495 0.0000 -0.0000 0.0000 76.3720 -29.7528 41.2718 -24.4337 35.6195 -7.9577 0.0000 0.0000 24.4978 -30.2057 -53.3656 25.0396 7.1250 -0.0000 -0.0000 -6.2076 3.2477 -174.1189
0.00 0.00 0.00 183.7640 -36.2185 176.3240 0.0000 0.0000 0.0000 -20.2012 -23.8549 -11.0345 6.8311 15.1880 48.2326 -1.3200 -30.7303 -14.0414 0.5601 4.7937 13.3211 0.0000 0.0000 0.0000 14.3810 27.5631 -26.9595 -8.6833 -16.5995 54.9881 -1.5014 3.5571 -22.2839 -2.2918 9.4492 -27.2109 -7.7884 -0.8860 13.8101 -8.0606 -3.7011 0.8274 -3.4796 -1.9895 -7.0067 -16.8211 -8.1337 -2.4024 10.9908 -10.5848 1.2301 5.6144 -5.2585 2.2386 -0.0000 -0.0000 0.0000 -67.0711 -15.1417 22.2737 19.0577 -29.4904 -5.0592 -0.0000 -0.0000 24.6786 15.6952 -35.3072 -9.2246 -7.1250 0.0000 -0.0000 -9.4341 -5.9236 10.4941 -0.0000 -0.0000 0.0000 74.3831 -30.5638 41.3929 -24.6032 35.7957 -8.0567 0.0000 0.0000 24.7597 -28.5297 -54.9104 23.9807 7.1250 -0.0000 -0.0000 -7.2432 2.3977 -173.0094
0.00 0.00 0.00 187.8080 -47.8392 174.3100 0.0000 0.0000 0.0000 -15.3725 -28.0581 -11.1872 6.8601 15.2130 48.3433 -4.5426 -36.0315 3.5072 6.2017 14.6210 45.7859 0.0000 0.0000 0.0000 16.6437 32.3615 -16.1484 -3.7347 -11.7987 35.0236 -1.4289 7.3352 -21.3819 -1.8684 8.5864 -24.5098 -5.2311 -1.2941 13.6071 -7.1722 -3.4785 1.4271 -4.0015 -1.8695 -6.3040 -12.3635 -5.5728 -3.3573 6.1135 -7.1213 5.1762 3.5556 -3.6112 2.7468 0.0000 0.0000 0.0000 -71.7324 -20.6798 37.2958 18.8585 -29.2425 -4.9616 -0.0000 -0.0000 24.2885 15.7269 -34.8153 -9.1334 -7.1250 0.0000 -0.0000 -9.3558 -5.4429 10.3341 0.0000 0.0000 0.0000 69.5110 -32.5825 45.5056 -26.0289 37.2373 -8.9051 0.0000 0.0000 25.2297 -24.0857 -55.3978 20.2011 7.1250 -0.0000 -0.0000 -8.9629 3.2808 -171.4579
0.00 0.00 0.00 188.8030 -57.5797 174.4130 0.0000 0.0000 0.0000 -13.0904 -30.5246 -12.8388 6.3874 14.7935 46.5172 -3.7430 -32.3667 19.7437 8.8826 16.7316 55.6834 0.0000 0.0000 0.0000 17.8515 30.4973 -13.0295 -3.3555 -11.2494 33.1258 -1.4624 3.7533 -21.9478 -0.6453 5.1391 -14.3056 -3.9763 -1.2342 13.3717 -6.7319 -3.0366 1.7656 -4.3260 -1.6445 -5.8239 -6.5015 -1.3773 -5.6772 1.1521 -1.4187 8.7517 1.4679 -0.8995 3.9601 0.0000 -0.0000 0.0000 -74.9131 -21.9328 47.6022 19.3072 -29.7986 -5.1826 -0.0000 -0.0000 23.3192 16.7792 -35.4144 -9.9111 -7.1250 0.0000 -0.0000 -8.8614 -6.2315 9.8842 0.0000 -0.0000 0.0000 68.5274 -32.6745 46.8073 -25.2758 36.4846 -8.4534 0.0000 0.0000 24.5762 -14.1491 -56.2796 11.8423 7.1250 -0.0000 -0.0000 -12.7422 5.0595 -168.1274
0.00 0.00 0.00 359.7520 -84.2642 6.3487 0.0000 0.0000 0.0000 -9.9290 -34.1889 -21.2981 4.8886 13.2572 40.3392 -0.0274 -21.1191 29.6216 8.3708 16.3853 53.8874 0.0000 0.0000 0.0000 20.5906 17.2822 -7.9790 -2.1769 -9.2253 26.5026 -1.5097 -14.8253 -32.6443 -0.3802 -3.9599 10.9637 3.5707 2.6446 10.8820 -1.4000 3.8111 1.4529 -4.0082 1.7998 -4.2413 12.8233 14.8806 0.6197 -10.3382 21.1131 17.8513 -3.5914 10.2595 7.9000 -0.0000 0.0000 0.0000 -78.1512 -12.0265 62.9364 22.4556 -33.4881 -6.8355 -0.0000 -0.0000 17.7824 14.6423 -33.9073 -8.2924 -7.1250 0.0000 -0.0000 -9.8440 -4.3542 10.7174 -0.0000 0.0000 0.0000 64.9911 -23.7629 48.4221 -14.6781 23.6958 -3.0954 0.0000 0.0000 28.3736 15.0029 -60.0637 -13.0750 7.1250 -0.0000 -0.0000 -22.5925 6.4019 -158.2588
0.00 0.00 0.00 363.4410 -57.9782 1.6491 0.0000 0.0000 0.0000 -15.1429 -30.5289 -22.1087 4.8909 13.2599 40.3494 -1.6521 -22.4124 13.0797 4.1511 12.3588 37.0132 0.0000 0.0000 0.0000 23.7596 4.1408 -8.7974 -2.0014 -8.8690 25.3863 -2.1201 -22.0512 -42.2642 -3.1495 -10.9333 32.0552 8.9669 4.4915 8.1814 1.7353 6.8772 -0.2668 -3.9185 3.2137 -4.0253 9.4301 10.8516 -1.1241 -9.4457 16.2279 24.8097 -3.2848 7.5986 9.5680 -0.0000 -0.0000 0.0000 -72.6079 -2.0546 42.7147 19.9496 -30.5816 -5.5057 -0.0000 -0.0000 20.1588 11.0691 -35.1337 -6.4235 -7.1250 0.0000 -0.0000 -11.9176 -4.9826 13.1854 -0.0000 -0.0000 0.0000 55.3385 -13.0665 34.5621 -14.6548 23.6630 -3.0860 0.0000 0.0000 33.1960 0.5018 -60.0625 -0.4349 7.1250 -0.0000 -0.0000 -18.0002 4.4518 -162.5494
0.00 0.00 0.00 364.9510 -48.6328 -0.4705 0.0000 0.0000 0.0000 -20.1785 -23.1308 -20.1313 4.8934 13.2628 40.3602 -0.5174 -16.5378 -5.3660 0.0191 -0.8922 -2.4523 0.0000 0.0000 0.0000 24.1006 2.0279 -9.9360 -2.4355 -9.7196 28.0734 -2.9690 -24.1570 -47.5090 -4.2335 -12.4648 37.3969 9.0579 4.6926 7.8612 2.1079 7.1638 -0.6443 -3.5953 3.3358 -4.2467 6.5062 8.7126 -1.7878 -8.1248 13.2362 25.1860 -2.6959 6.0554 9.1657 -0.0000 -0.0000 0.0000 -68.7529 3.2085 34.0048 20.3202 -31.0262 -5.6955 -0.0000 -0.0000 19.5760 12.3154 -34.8148 -7.1049 -7.1250 0.0000 -0.0000 -11.2118 -4.8637 12.3523 -0.0000 -0.0000 0.0000 50.8430 -2.8543 21.1180 -15.6488 25.0422 -3.4960 0.0000 0.0000 33.1131 -10.8846 -57.8626 9.2481 7.1250 -0.0000 -0.0000 -14.0764 4.3434 -166.6116
0.00 0.00 0.00 363.9270 -28.5580 -0.7732 0.0000 0.0000 0.0000 -20.3466 -7.8195 -14.4775 6.1141 14.5380 45.4379 0.8164 10.6856 -24.0771 0.0302 -1.1227 -3.0864 0.0000 0.0000 0.0000 25.3026 -4.0504 -11.0173 -2.5497 -9.9278 28.7432 -2.5217 -27.9597 -49.2887 -4.5637 -12.8749 38.9021 8.2639 4.2230 6.1611 3.4651 6.3536 -0.7935 -1.5587 2.9894 -3.7849 -0.2825 2.3246 -1.7533 -4.6256 4.1457 23.7918 -1.1880 1.5334 7.6885 0.0000 -0.0000 0.0000 -70.5042 19.7018 15.7753 20.8811 -31.6893 -5.9873 -0.0000 -0.0000 19.1135 7.1847 -31.7911 -3.7995 -7.1250 0.0000 -0.0000 -13.8163 -1.2066 14.5298 0.0000 -0.0000 0.0000 46.1000 24.5495 4.0560 -22.5634 33.6079 -6.8951 0.0000 0.0000 16.9547 -20.9013 -56.8028 17.7218 7.1250 -0.0000 -0.0000 -10.3961 2.8956 -169.9735
0.00 0.00 0.00 364.5220 -0.5737 0.1672 0.0000 0.0000 0.0000 -30.7752 -8.6971 -0.9303 0.9259 6.1302 17.1627 1.2464 4.0078 -22.8791 3.2045 -11.0190 -32.3440 0.0000 0.0000 0.0000 10.7008 7.9481 -15.4631 -9.7362 -17.2588 58.6031 -0.5021 -11.2516 -21.8040 -0.0888 1.9223 -5.2909 4.6233 1.0741 5.7809 4.1864 1.9060 -0.4186 1.5722 0.8962 -3.6753 -5.2673 -7.7488 4.9614 1.7082 -10.5967 0.8114 1.5359 -5.3251 -0.1913 -0.0000 -0.0000 0.0000 -90.0330 28.5550 29.0276 22.0524 -33.0362 -6.6144 -0.0000 -0.0000 10.3911 -21.5171 -31.2867 11.5711 -7.1250 0.0000 -0.0000 -28.7833 -0.0831 33.3698 -0.0000 -0.0000 0.0000 71.9009 -25.4476 25.9616 -18.0912 28.2738 -4.5924 0.0000 0.0000 31.2458 -15.6208 -54.0458 12.7528 7.1250 -0.0000 -0.0000 -11.9143 6.7570 -169.3312
0.00 0.00 0.00 364.9270 1.4611 -1.3161 0.0000 0.0000 0.0000 -31.4784 -5.7591 0.3449 0.7682 5.5968 15.6190 1.0586 1.6724 -20.1084 3.5392 -11.5205 -34.0562 0.0000 0.0000 0.0000 8.8877 6.4132 -22.2367 -15.3045 -19.4630 76.1523 -0.6938 -9.5303 -21.9476 -0.0010 0.2087 -0.5733 3.1872 -0.1919 8.4913 3.8217 0.2366 0.2203 2.1562 0.0897 -4.5449 -4.7887 -7.1528 4.0893 2.1496 -9.7330 0.6327 1.5576 -4.8906 -0.1346 0.0000 0.0000 0.0000 -86.6034 22.9932 27.5959 21.9708 -32.9440 -6.5699 -0.0000 -0.0000 8.4595 -13.3337 -34.2669 7.6011 -7.1250 0.0000 -0.0000 -24.6210 -2.4086 28.3480 0.0000 0.0000 0.0000 75.0134 -29.9449 25.3129 -18.3428 28.5938 -4.7121 0.0000 0.0000 28.4651 -8.0409 -52.7692 6.4176 7.1250 -0.0000 -0.0000 -14.8502 9.6943 -167.4210
